<svg width="17" height="18" viewBox="0 0 17 18" fill="none" xmlns="http://www.w3.org/2000/svg">
<path d="M17 6.21917V13.2932C17 14.5162 15.9487 15.5073 14.6513 15.5073H2.34868C1.72577 15.5073 1.12838 15.274 0.687914 14.8588C0.24745 14.4436 0 13.8804 0 13.2932V6.21917L8.23068 10.4871C8.39845 10.5739 8.602 10.5739 8.76932 10.4871L17 6.21875V6.21917ZM14.6513 2.85547C15.2644 2.85552 15.8532 3.08158 16.2919 3.48535C16.7306 3.88912 16.9844 4.4386 16.9991 5.0164L8.5 9.42345L0.000894672 5.01598L0.00178956 4.97802C0.0268433 4.40711 0.285066 3.86744 0.722459 3.47186C1.15985 3.07627 1.74254 2.85542 2.34868 2.85547H14.6513Z" fill="white"/>
</svg>
