<svg width="14" height="14" viewBox="0 0 14 14" fill="none" xmlns="http://www.w3.org/2000/svg">
<path d="M13.1224 13.6858C5.65775 13.696 -0.0078668 8.11659 8.19935e-06 0.91491C8.19935e-06 0.443995 0.392008 0.060791 0.875008 0.060791H3.18501C3.61813 0.060791 3.98651 0.37076 4.05038 0.788027C4.20272 1.78866 4.50181 2.76284 4.93851 3.68079L5.02863 3.86984C5.08917 3.99705 5.10219 4.14084 5.06545 4.2764C5.02871 4.41196 4.94452 4.5308 4.82738 4.6124C4.11163 5.10972 3.83863 6.1103 4.39601 6.89034C5.09513 7.86964 5.97625 8.72801 6.9825 9.40841C7.78488 9.95001 8.813 9.68432 9.32313 8.98859C9.40689 8.87425 9.5291 8.792 9.66859 8.75608C9.80808 8.72016 9.95609 8.73282 10.087 8.79188L10.2804 8.87874C11.2236 9.30452 12.2246 9.59576 13.2528 9.74393C13.6815 9.80609 14 10.1646 14 10.587V12.8343C14 12.9462 13.9773 13.057 13.9333 13.1603C13.8893 13.2637 13.8248 13.3576 13.7434 13.4367C13.6621 13.5158 13.5655 13.5785 13.4592 13.6212C13.353 13.664 13.2391 13.6859 13.1241 13.6858H13.1224Z" fill="white"/>
</svg>
